<mxfile host="app.diagrams.net" modified="2024-03-14T13:07:18.716Z" agent="Mozilla/5.0 (Windows NT 10.0; Win64; x64) AppleWebKit/537.36 (KHTML, like Gecko) Chrome/122.0.0.0 Safari/537.36" etag="9jDMJCd0Mt9Un0s3mguD" version="24.0.6" type="device">
  <diagram name="Страница — 1" id="i0EpF41gf5h4zYF6RRCa">
    <mxGraphModel dx="1434" dy="780" grid="1" gridSize="10" guides="1" tooltips="1" connect="1" arrows="1" fold="1" page="1" pageScale="1" pageWidth="827" pageHeight="1169" math="0" shadow="0">
      <root>
        <mxCell id="0" />
        <mxCell id="1" parent="0" />
        <mxCell id="vyme01hgAQcu3NiY33Lq-9" style="edgeStyle=orthogonalEdgeStyle;rounded=0;orthogonalLoop=1;jettySize=auto;html=1;entryX=0.5;entryY=0;entryDx=0;entryDy=0;" edge="1" parent="1" source="vyme01hgAQcu3NiY33Lq-10" target="vyme01hgAQcu3NiY33Lq-12">
          <mxGeometry relative="1" as="geometry" />
        </mxCell>
        <mxCell id="vyme01hgAQcu3NiY33Lq-10" value="НАЧАЛО" style="ellipse;whiteSpace=wrap;html=1;" vertex="1" parent="1">
          <mxGeometry x="340" y="10" width="120" height="40" as="geometry" />
        </mxCell>
        <mxCell id="vyme01hgAQcu3NiY33Lq-11" style="edgeStyle=orthogonalEdgeStyle;rounded=0;orthogonalLoop=1;jettySize=auto;html=1;exitX=0.5;exitY=1;exitDx=0;exitDy=0;" edge="1" parent="1" source="vyme01hgAQcu3NiY33Lq-12" target="vyme01hgAQcu3NiY33Lq-14">
          <mxGeometry relative="1" as="geometry">
            <mxPoint x="400" y="200" as="targetPoint" />
          </mxGeometry>
        </mxCell>
        <mxCell id="vyme01hgAQcu3NiY33Lq-12" value="string[] originArray&lt;div&gt;string[] arrayToReplace&lt;/div&gt;&lt;div&gt;int count = 0&lt;/div&gt;" style="shape=parallelogram;perimeter=parallelogramPerimeter;whiteSpace=wrap;html=1;fixedSize=1;" vertex="1" parent="1">
          <mxGeometry x="315" y="80" width="170" height="50" as="geometry" />
        </mxCell>
        <mxCell id="vyme01hgAQcu3NiY33Lq-13" style="edgeStyle=orthogonalEdgeStyle;rounded=0;orthogonalLoop=1;jettySize=auto;html=1;exitX=0.5;exitY=1;exitDx=0;exitDy=0;" edge="1" parent="1" source="vyme01hgAQcu3NiY33Lq-14">
          <mxGeometry relative="1" as="geometry">
            <mxPoint x="400" y="240" as="targetPoint" />
          </mxGeometry>
        </mxCell>
        <mxCell id="vyme01hgAQcu3NiY33Lq-14" value="for(int i=0;i&amp;lt;originArray.Length;i++)" style="shape=hexagon;perimeter=hexagonPerimeter2;whiteSpace=wrap;html=1;fixedSize=1;" vertex="1" parent="1">
          <mxGeometry x="290" y="160" width="220" height="40" as="geometry" />
        </mxCell>
        <mxCell id="vyme01hgAQcu3NiY33Lq-21" style="edgeStyle=orthogonalEdgeStyle;rounded=0;orthogonalLoop=1;jettySize=auto;html=1;exitX=0;exitY=0.5;exitDx=0;exitDy=0;" edge="1" parent="1" source="vyme01hgAQcu3NiY33Lq-15">
          <mxGeometry relative="1" as="geometry">
            <mxPoint x="200" y="340" as="targetPoint" />
          </mxGeometry>
        </mxCell>
        <mxCell id="vyme01hgAQcu3NiY33Lq-23" style="edgeStyle=orthogonalEdgeStyle;rounded=0;orthogonalLoop=1;jettySize=auto;html=1;exitX=1;exitY=0.5;exitDx=0;exitDy=0;" edge="1" parent="1" source="vyme01hgAQcu3NiY33Lq-15">
          <mxGeometry relative="1" as="geometry">
            <mxPoint x="580" y="285" as="targetPoint" />
          </mxGeometry>
        </mxCell>
        <mxCell id="vyme01hgAQcu3NiY33Lq-15" value="originArray[i].Length&amp;lt;=3 ?" style="rhombus;whiteSpace=wrap;html=1;" vertex="1" parent="1">
          <mxGeometry x="290" y="240" width="220" height="90" as="geometry" />
        </mxCell>
        <mxCell id="vyme01hgAQcu3NiY33Lq-17" value="YES" style="text;html=1;align=center;verticalAlign=middle;resizable=0;points=[];autosize=1;strokeColor=none;fillColor=none;" vertex="1" parent="1">
          <mxGeometry x="235" y="248" width="50" height="30" as="geometry" />
        </mxCell>
        <mxCell id="vyme01hgAQcu3NiY33Lq-22" style="edgeStyle=orthogonalEdgeStyle;rounded=0;orthogonalLoop=1;jettySize=auto;html=1;exitX=0.5;exitY=1;exitDx=0;exitDy=0;entryX=0;entryY=0.5;entryDx=0;entryDy=0;" edge="1" parent="1" source="vyme01hgAQcu3NiY33Lq-20" target="vyme01hgAQcu3NiY33Lq-14">
          <mxGeometry relative="1" as="geometry">
            <Array as="points">
              <mxPoint x="200" y="380" />
              <mxPoint x="200" y="440" />
              <mxPoint x="80" y="440" />
              <mxPoint x="80" y="180" />
            </Array>
          </mxGeometry>
        </mxCell>
        <mxCell id="vyme01hgAQcu3NiY33Lq-20" value="arrayToReplace[count]=originArray[i]&lt;div&gt;count++&lt;/div&gt;" style="rounded=0;whiteSpace=wrap;html=1;" vertex="1" parent="1">
          <mxGeometry x="110" y="340" width="200" height="40" as="geometry" />
        </mxCell>
        <mxCell id="vyme01hgAQcu3NiY33Lq-24" value="NO" style="text;html=1;align=center;verticalAlign=middle;resizable=0;points=[];autosize=1;strokeColor=none;fillColor=none;" vertex="1" parent="1">
          <mxGeometry x="520" y="248" width="40" height="30" as="geometry" />
        </mxCell>
        <mxCell id="vyme01hgAQcu3NiY33Lq-26" style="edgeStyle=orthogonalEdgeStyle;rounded=0;orthogonalLoop=1;jettySize=auto;html=1;exitX=0.5;exitY=1;exitDx=0;exitDy=0;" edge="1" parent="1" source="vyme01hgAQcu3NiY33Lq-25">
          <mxGeometry relative="1" as="geometry">
            <mxPoint x="655" y="400" as="targetPoint" />
          </mxGeometry>
        </mxCell>
        <mxCell id="vyme01hgAQcu3NiY33Lq-25" value="for(int i=0;i&amp;lt;count;i++)" style="shape=hexagon;perimeter=hexagonPerimeter2;whiteSpace=wrap;html=1;fixedSize=1;" vertex="1" parent="1">
          <mxGeometry x="580" y="265" width="150" height="40" as="geometry" />
        </mxCell>
        <mxCell id="vyme01hgAQcu3NiY33Lq-28" style="edgeStyle=orthogonalEdgeStyle;rounded=0;orthogonalLoop=1;jettySize=auto;html=1;" edge="1" parent="1" source="vyme01hgAQcu3NiY33Lq-27">
          <mxGeometry relative="1" as="geometry">
            <mxPoint x="400" y="520" as="targetPoint" />
          </mxGeometry>
        </mxCell>
        <mxCell id="vyme01hgAQcu3NiY33Lq-27" value="arrayToReplace[i]" style="shape=document;whiteSpace=wrap;html=1;boundedLbl=1;" vertex="1" parent="1">
          <mxGeometry x="600" y="400" width="120" height="70" as="geometry" />
        </mxCell>
        <mxCell id="vyme01hgAQcu3NiY33Lq-29" value="КОНЕЦ" style="ellipse;whiteSpace=wrap;html=1;" vertex="1" parent="1">
          <mxGeometry x="340" y="520" width="120" height="40" as="geometry" />
        </mxCell>
      </root>
    </mxGraphModel>
  </diagram>
</mxfile>
